# xmcd
#
# Track frame offsets: 
#        300
#        18915
#        30221
#        40725
#        56420
#        66549
#        73945
#        86401
#        100414
#        113134
#        121826
#        132864
#
# Disc length: 1930 seconds
#
# Revision: 0
# Processed by: cddbd v1.5.2PL0 Copyright (c) Steve Scherf et al.
# Submitted via: ExactAudioCopy v1.0b1
#
DISCID=9d07860c
DTITLE=Albert Collins - Love Can Be Anywhere (Even In A Guitar)
DYEAR=1968
DGENRE=Texas Blues
TTITLE0=Do The Sissy
TTITLE1=Collin'S Mix
TTITLE2=Let'S Get It Together
TTITLE3=Got A Good Thing Goin'
TTITLE4=All About My Girl
TTITLE5=Doin' My Thing
TTITLE6=Let'S Get It Together Again
TTITLE7=Ain'T Got Time
TTITLE8=Turnin' On
TTITLE9=Watcha Say (I Don'T Know)
TTITLE10=Pushin'
TTITLE11=Stump Poker
EXTD=
EXTT0=
EXTT1=
EXTT2=
EXTT3=
EXTT4=
EXTT5=
EXTT6=
EXTT7=
EXTT8=
EXTT9=
EXTT10=
EXTT11=
PLAYORDER=
